<svg width="145" height="167" viewBox="0 0 145 167" fill="none" xmlns="http://www.w3.org/2000/svg">
<path d="M104.825 45.1855H132.763C139.459 45.1855 145 50.5425 145 57.53V99.9205H78.5032V50.5425C76.1943 49.8438 74.1162 48.9121 72.7309 47.5146C72.5 47.5146 72.5 47.2817 72.2691 47.2817C72.2691 47.2817 72.2691 47.5146 72.0382 47.5146C70.422 48.9121 68.5748 49.8438 66.4968 50.5425V99.9205H0V57.53C0 50.5425 5.31051 45.1855 12.0064 45.1855H40.1752C36.9427 43.5551 33.9411 41.2259 31.4013 39.1297C20.3185 28.4156 18.2404 13.5091 27.0143 5.12413C30.7086 1.86332 35.5573 0 40.8678 0C48.4873 0 56.3376 3.02789 63.0334 9.3166C66.7277 12.8103 70.1911 17.7015 72.2691 22.3598C74.578 17.7015 78.0414 12.8103 81.7357 9.3166C88.2006 3.02789 96.5127 0 103.901 0C109.443 0 114.291 1.86332 117.755 5.12413C126.529 13.5091 124.451 28.4156 113.137 39.1297C110.828 41.2259 107.826 43.5551 104.825 45.1855ZM63.7261 38.431C64.6497 36.3347 62.3408 25.6206 54.7213 18.4003C50.7962 14.6736 45.4857 12.5774 40.8678 12.5774C39.4825 12.5774 37.1736 12.8103 35.5573 14.2078C35.0955 14.6736 33.7102 15.6053 33.7102 18.1674C33.7102 21.1953 35.5573 25.8536 39.9443 29.8131C45.4857 35.1702 54.2596 38.8968 60.7245 38.8968C62.8025 38.8968 63.7261 38.431 63.7261 38.431ZM81.2739 38.431C81.2739 38.431 82.4283 38.8968 84.2755 38.8968C90.7404 38.8968 99.5143 35.1702 105.056 29.8131C109.443 25.8536 110.828 21.1953 110.828 18.1674C110.828 15.6053 109.674 14.6736 109.443 14.2078C107.826 12.8103 105.287 12.5774 103.901 12.5774C99.5143 12.5774 93.9729 14.6736 90.0478 18.4003C82.6592 25.6206 80.1194 36.1018 81.2739 38.6639V38.431ZM66.4968 167H12.0064C5.31051 167 0 161.643 0 154.888V112.265H66.4968V167ZM132.763 167H78.5032V112.265H145V154.888C145 161.643 139.459 167 132.763 167Z" fill="#FF8484"/>
</svg>
