<svg width="17" height="18" viewBox="0 0 17 18" fill="none" xmlns="http://www.w3.org/2000/svg">
<path d="M3.15427 0.880859C2.31871 0.884115 1.5183 1.21749 0.927462 1.80832C0.336626 2.39916 0.003256 3.19957 0 4.03513V14.7266C0.003256 15.5621 0.336626 16.3626 0.927462 16.9534C1.5183 17.5442 2.31871 17.8776 3.15427 17.8809H13.8457C14.6813 17.8776 15.4817 17.5442 16.0725 16.9534C16.6634 16.3626 16.9967 15.5621 17 14.7266V4.03513C16.9967 3.19957 16.6634 2.39916 16.0725 1.80832C15.4817 1.21749 14.6813 0.884115 13.8457 0.880859H3.15427ZM3.15427 2.42631H13.8457C14.7421 2.42631 15.4545 3.13877 15.4545 4.03513V14.7266C15.4545 15.6229 14.7421 16.3354 13.8457 16.3354H3.15427C2.94263 16.3367 2.73282 16.296 2.53703 16.2157C2.34124 16.1353 2.16335 16.0168 2.01369 15.8672C1.86403 15.7175 1.74558 15.5396 1.6652 15.3438C1.58482 15.148 1.54412 14.9382 1.54545 14.7266V4.03513C1.54545 3.13877 2.25791 2.42631 3.15427 2.42631ZM8.28286 6.46768C7.71491 6.46227 7.23195 6.46768 6.96073 6.60059C6.77914 6.68868 6.64082 6.88727 6.72505 6.89654C6.83091 6.912 7.06891 6.963 7.19641 7.13531C7.35868 7.35554 7.35327 7.85395 7.35327 7.85395C7.35327 7.85395 7.44368 9.224 7.13227 9.39631C6.91823 9.51377 6.62536 9.275 5.99173 8.18545C5.66873 7.62445 5.42455 7.0055 5.42455 7.0055C5.42455 7.0055 5.37818 6.89036 5.29473 6.83009C5.19195 6.75513 5.04977 6.7304 5.04977 6.7304L3.53755 6.73968C3.53755 6.73968 3.31114 6.74895 3.23 6.84554C3.15427 6.93595 3.22382 7.11368 3.22382 7.11368C3.22382 7.11368 4.40686 9.88159 5.74677 11.2764C6.97541 12.5568 8.37018 12.4718 8.37018 12.4718H9.00382C9.00382 12.4718 9.19391 12.4509 9.2905 12.3481C9.38168 12.2515 9.37859 12.0699 9.37859 12.0699C9.37859 12.0699 9.36623 11.2223 9.75877 11.0955C10.1482 10.9742 10.6428 11.9162 11.1713 12.2786C11.5731 12.5529 11.8776 12.4926 11.8776 12.4926L13.2909 12.4718C13.2909 12.4718 14.0273 12.4262 13.6773 11.8435C13.6502 11.7987 13.4748 11.4155 12.6302 10.6304C11.7424 9.80972 11.8606 9.94263 12.9285 8.52081C13.5776 7.65459 13.8372 7.12604 13.7553 6.89654C13.678 6.6825 13.2005 6.73968 13.2005 6.73968L11.6095 6.74895C11.6095 6.74895 11.492 6.7335 11.4047 6.78527C11.3446 6.82986 11.2968 6.88885 11.2656 6.95681C11.2656 6.95681 11.0121 7.62677 10.6768 8.19781C9.9705 9.39863 9.68382 9.46509 9.56946 9.39013C9.30055 9.21472 9.367 8.68927 9.367 8.31836C9.367 7.15 9.54473 6.66704 9.02314 6.54109C8.85082 6.49859 8.72409 6.47154 8.28364 6.46768H8.28286Z" fill="#A7A7A7"/>
</svg>
