<svg width="170" height="170" viewBox="0 0 170 170" fill="none" xmlns="http://www.w3.org/2000/svg">
<circle cx="85" cy="85" r="85" fill="#FF8484"/>
<path d="M79.3262 138.986C85.3528 138.986 90.2384 134.101 90.2384 128.074C90.2384 122.048 85.3528 117.162 79.3262 117.162C73.2996 117.162 68.4141 122.048 68.4141 128.074C68.4141 134.101 73.2996 138.986 79.3262 138.986Z" stroke="white" stroke-width="6"/>
<path d="M89.8018 51.6891C95.8284 51.6891 100.714 46.8035 100.714 40.7769C100.714 34.7503 95.8284 29.8647 89.8018 29.8647C83.7752 29.8647 78.8896 34.7503 78.8896 40.7769C78.8896 46.8035 83.7752 51.6891 89.8018 51.6891Z" stroke="white" stroke-width="6"/>
<path d="M117.736 95.3375C123.763 95.3375 128.649 90.452 128.649 84.4253C128.649 78.3987 123.763 73.5132 117.736 73.5132C111.71 73.5132 106.824 78.3987 106.824 84.4253C106.824 90.452 111.71 95.3375 117.736 95.3375Z" stroke="white" stroke-width="6"/>
<path d="M52.2632 95.3375C58.2899 95.3375 63.1754 90.452 63.1754 84.4253C63.1754 78.3987 58.2899 73.5132 52.2632 73.5132C46.2366 73.5132 41.3511 78.3987 41.3511 84.4253C41.3511 90.452 46.2366 95.3375 52.2632 95.3375Z" stroke="white" stroke-width="6"/>
<path d="M106.824 84.8618H63.1753" stroke="white" stroke-width="6" stroke-linecap="round" stroke-linejoin="round"/>
<path d="M82.3805 49.0698L60.5562 76.132" stroke="white" stroke-width="6" stroke-linecap="round" stroke-linejoin="round"/>
<path d="M109.443 92.7183L87.6191 119.78" stroke="white" stroke-width="6"/>
</svg>
