<svg width="170" height="170" viewBox="0 0 170 170" fill="none" xmlns="http://www.w3.org/2000/svg">
<circle cx="85" cy="85" r="85" fill="#FF8484"/>
<path d="M88.5553 78.8892C88.6485 78.1364 88.7183 77.3836 88.7183 76.5837C88.7183 75.7838 88.6485 75.031 88.5553 74.2782L93.4695 70.3964C93.9121 70.0435 94.0285 69.4083 93.749 68.8907L89.091 60.7507C88.8115 60.2331 88.1827 60.0449 87.6703 60.2331L81.871 62.5857C80.6599 61.6447 79.3557 60.8683 77.935 60.2802L77.0499 54.0458C77.0114 53.769 76.8742 53.5159 76.6641 53.334C76.454 53.1521 76.1854 53.0539 75.9087 53.0577H66.5926C66.0104 53.0577 65.5213 53.4812 65.4514 54.0458L64.5664 60.2802C63.1457 60.8683 61.8414 61.6682 60.6303 62.5857L54.831 60.2331C54.2954 60.0214 53.6898 60.2331 53.4103 60.7507L48.7523 68.8907C48.4495 69.4083 48.5893 70.0435 49.0318 70.3964L53.946 74.2782C53.8529 75.031 53.783 75.8073 53.783 76.5837C53.783 77.3601 53.8529 78.1364 53.946 78.8892L49.0318 82.771C48.5893 83.1239 48.4728 83.7591 48.7523 84.2767L53.4103 92.4167C53.6898 92.9342 54.3187 93.1225 54.831 92.9342L60.6303 90.5816C61.8414 91.5227 63.1457 92.299 64.5664 92.8872L65.4514 99.1216C65.5213 99.6862 66.0104 100.11 66.5926 100.11H75.9087C76.491 100.11 76.9801 99.6862 77.0499 99.1216L77.935 92.8872C79.3557 92.299 80.6599 91.4992 81.871 90.5816L87.6703 92.9342C88.2059 93.146 88.8115 92.9342 89.091 92.4167L93.749 84.2767C94.0285 83.7591 93.9121 83.1239 93.4695 82.771L88.5553 78.8892ZM71.2507 84.8178C66.7556 84.8178 63.0991 81.1242 63.0991 76.5837C63.0991 72.0432 66.7556 68.3496 71.2507 68.3496C75.7457 68.3496 79.4022 72.0432 79.4022 76.5837C79.4022 81.1242 75.7457 84.8178 71.2507 84.8178Z" fill="white"/>
<path d="M118.063 70.3674C118.122 69.8934 118.166 69.4194 118.166 68.9157C118.166 68.4121 118.122 67.9381 118.063 67.4641L121.163 65.02C121.442 64.7978 121.515 64.3979 121.339 64.072L118.401 58.9468C118.224 58.621 117.828 58.5025 117.505 58.621L113.847 60.1022C113.083 59.5097 112.26 59.0209 111.364 58.6506L110.806 54.7252C110.781 54.5509 110.695 54.3916 110.562 54.2771C110.43 54.1625 110.26 54.1007 110.086 54.1031H104.209C103.842 54.1031 103.534 54.3697 103.49 54.7252L102.931 58.6506C102.035 59.0209 101.213 59.5245 100.449 60.1022L96.7906 58.621C96.4527 58.4876 96.0708 58.621 95.8945 58.9468L92.9563 64.072C92.7654 64.3979 92.8535 64.7978 93.1326 65.02L96.2324 67.4641C96.1736 67.9381 96.1295 68.4269 96.1295 68.9157C96.1295 69.4046 96.1736 69.8934 96.2324 70.3674L93.1326 72.8115C92.8535 73.0337 92.7801 73.4336 92.9563 73.7595L95.8945 78.8847C96.0708 79.2105 96.4674 79.329 96.7906 79.2105L100.449 77.7293C101.213 78.3218 102.035 78.8106 102.931 79.1809L103.49 83.1063C103.534 83.4618 103.842 83.7284 104.209 83.7284H110.086C110.453 83.7284 110.762 83.4618 110.806 83.1063L111.364 79.1809C112.26 78.8106 113.083 78.307 113.847 77.7293L117.505 79.2105C117.842 79.3439 118.224 79.2105 118.401 78.8847L121.339 73.7595C121.515 73.4336 121.442 73.0337 121.163 72.8115L118.063 70.3674ZM107.148 74.1002C104.312 74.1002 102.006 71.7746 102.006 68.9157C102.006 66.0569 104.312 63.7313 107.148 63.7313C109.983 63.7313 112.289 66.0569 112.289 68.9157C112.289 71.7746 109.983 74.1002 107.148 74.1002Z" fill="white"/>
<path d="M125.432 39.0542H44.5671C39.0026 39.0542 34.459 43.5914 34.459 49.1368V104.591C34.459 110.136 38.9167 115.571 44.37 116.655L66.4663 121.066C66.4663 121.066 47.4479 129.797 59.7293 129.797H110.27C122.551 129.797 103.528 121.066 103.528 121.066L125.629 116.655C131.077 115.571 135.54 110.136 135.54 104.591V49.1368C135.54 43.5914 130.991 39.0542 125.432 39.0542ZM125.432 104.591H44.5671V49.1368H125.432V104.591Z" fill="white"/>
</svg>
