<svg width="170" height="170" viewBox="0 0 170 170" fill="none" xmlns="http://www.w3.org/2000/svg">
<circle cx="85" cy="85" r="85" fill="#FF8484"/>
<path d="M84.8 38.5785C80.9224 38.5779 77.13 39.719 73.8933 41.8603C70.6566 44.0016 68.1182 47.0488 66.5929 50.6238C65.0677 54.1987 64.6228 58.1441 65.3134 61.9704C66.0041 65.7966 67.7999 69.3353 70.478 72.1473C71.1644 72.8687 71.6 73.8019 71.6 74.7947C71.6 75.7215 71.2328 76.6104 70.5793 77.2657C69.9258 77.9211 69.0394 78.2892 68.1152 78.2892H41.3918C40.6514 78.2892 39.9413 78.5842 39.4177 79.1092C38.8941 79.6343 38.6 80.3464 38.6 81.0889C38.6 89.123 41.7826 96.828 47.4478 102.509C53.1129 108.19 60.7965 111.382 68.8082 111.382H76.2398C76.5823 111.973 76.9848 112.528 77.441 113.036C75.989 114.605 74.636 116.253 73.349 118H68.8082C59.0461 118 49.6837 114.111 42.7809 107.189C35.878 100.267 32 90.8783 32 81.0889C32 75.8867 36.2042 71.6708 41.3918 71.6708H61.931C60.0545 68.3983 58.8976 64.7613 58.5378 61.0037C58.1781 57.246 58.6239 53.4547 59.8453 49.884C61.0667 46.3133 63.0355 43.0459 65.6196 40.3008C68.2036 37.5558 71.3432 35.3967 74.8277 33.9683C78.3122 32.54 82.0611 31.8754 85.8227 32.0192C89.5844 32.163 93.2719 33.1119 96.6378 34.8021C100.004 36.4923 102.97 38.8849 105.338 41.8192C107.707 44.7536 109.422 48.1618 110.368 51.8154H123.304C127.548 51.8154 131 55.2702 131 59.5392C131 66.237 125.588 71.6708 118.902 71.6708H107.669C107.167 72.5444 106.613 73.3916 106.019 74.1924C108.408 75.536 110.494 77.3693 112.137 79.5468C109.176 79.5868 106.221 79.8301 103.293 80.2748C101.943 79.4317 100.452 78.8419 98.891 78.5341C97.505 78.2694 96.35 77.1443 96.35 75.7279C96.35 74.8543 96.7988 74.0534 97.4918 73.524C98.0462 73.1004 98.7194 72.5378 99.3398 71.8958H99.353C101.155 69.9368 102.567 67.6137 103.471 65.0523H118.902C121.938 65.0523 124.4 62.5836 124.4 59.5392C124.4 59.246 124.284 58.9649 124.077 58.7576C123.87 58.5503 123.59 58.4339 123.298 58.4339H104.6C104.6 53.1679 102.514 48.1176 98.8007 44.394C95.0875 40.6704 90.0513 38.5785 84.8 38.5785Z" fill="white"/>
<path d="M122.539 92.0393C117.827 91.0328 112.555 90.2812 107.065 90.9791C96.711 92.2943 91.3527 99.5211 88.2711 107.332C88.1094 107.741 87.8702 108.113 87.567 108.428C87.2638 108.743 86.9026 108.994 86.504 109.167C86.1054 109.34 85.6772 109.431 85.2439 109.436C84.8106 109.44 84.3806 109.358 83.9785 109.194C83.5764 109.029 83.2101 108.786 82.9004 108.478C82.5908 108.17 82.3439 107.802 82.1739 107.397C82.0038 106.992 81.914 106.556 81.9094 106.116C81.9049 105.675 81.9857 105.238 82.1473 104.829C85.6645 95.9043 92.5075 86.0673 106.246 84.3227C112.799 83.4906 118.916 84.4099 123.892 85.4701C125.376 85.7855 126.874 86.1411 128.227 86.4632L130.497 86.9933C132.444 87.4294 133.783 87.6509 134.701 87.6509C135.263 87.6509 135.817 87.7972 136.308 88.076C136.799 88.3547 137.212 88.7566 137.508 89.2434C137.804 89.7302 137.972 90.2858 137.997 90.8574C138.022 91.4289 137.902 91.9975 137.65 92.509C137.314 93.1934 136.76 94.0993 136.212 95.0052L136.1 95.1796C135.473 96.2197 134.74 97.4275 133.962 98.8165C131.725 102.726 130.016 106.924 128.88 111.297C127.858 115.035 126.465 120.061 124.037 124.295C122.466 127.033 120.368 129.643 117.464 131.562C114.528 133.508 110.958 134.622 106.655 134.622C99.6211 134.622 94.5928 130.857 91.4715 127.388C90.0681 125.822 88.8336 124.108 87.7893 122.275C83.8102 126.375 80.7879 130.992 78.2606 136.125C78.0685 136.522 77.801 136.877 77.4735 137.169C77.1459 137.46 76.7648 137.683 76.3521 137.825C75.9394 137.966 75.5033 138.023 75.069 137.992C74.6346 137.961 74.2105 137.843 73.8212 137.644C73.4319 137.446 73.0851 137.171 72.8008 136.836C72.5164 136.501 72.3001 136.111 72.1644 135.691C72.0287 135.27 71.9762 134.826 72.0099 134.385C72.0437 133.943 72.1631 133.513 72.3612 133.119C79.3626 118.88 89.9604 108.224 110.562 101.246C110.977 101.087 111.42 101.015 111.864 101.034C112.307 101.053 112.742 101.163 113.143 101.357C113.543 101.551 113.901 101.826 114.195 102.164C114.489 102.502 114.713 102.897 114.854 103.325C114.994 103.753 115.048 104.206 115.012 104.655C114.977 105.105 114.852 105.543 114.646 105.943C114.44 106.343 114.157 106.696 113.813 106.982C113.47 107.268 113.073 107.48 112.647 107.607C104.392 110.412 97.9846 113.78 92.8705 117.739C93.7909 119.598 94.9565 121.32 96.3349 122.859C98.7501 125.529 102.142 127.912 106.655 127.912C109.777 127.912 112.08 127.12 113.861 125.939C115.676 124.738 117.128 123.02 118.342 120.906C120.295 117.504 121.378 113.619 122.394 109.949C122.697 108.875 122.988 107.815 123.298 106.795C124.534 102.858 126.187 99.0691 128.227 95.495C128.603 94.824 128.973 94.1865 129.323 93.596L129.078 93.5424C128.234 93.3545 127.402 93.1532 126.558 92.9586C125.222 92.6353 123.882 92.3289 122.539 92.0393Z" fill="white"/>
</svg>
