<svg width="170" height="170" viewBox="0 0 170 170" fill="none" xmlns="http://www.w3.org/2000/svg">
<circle cx="85" cy="85" r="85" fill="#FF8484"/>
<path fill-rule="evenodd" clip-rule="evenodd" d="M85.3912 30C54.235 30 29 55.235 29 86.3912C29 111.344 45.142 132.42 67.5575 139.892C70.377 140.386 71.4343 138.694 71.4343 137.214C71.4343 135.874 71.3639 131.434 71.3639 126.711C57.1956 129.319 53.5302 123.257 52.4023 120.085C51.7679 118.464 49.0189 113.459 46.6222 112.12C44.6485 111.062 41.829 108.454 46.5517 108.384C50.9925 108.313 54.1646 112.472 55.2219 114.164C60.2971 122.693 68.4033 120.296 71.6458 118.816C72.1392 115.151 73.6195 112.684 75.2407 111.274C62.6937 109.864 49.5828 105 49.5828 83.4306C49.5828 77.2981 51.7679 72.2229 55.3629 68.2755C54.799 66.8657 52.8253 61.0856 55.9268 53.3318C55.9268 53.3318 60.6495 51.8516 71.4343 59.1119C75.9456 57.8431 80.7389 57.2087 85.5321 57.2087C90.3254 57.2087 95.1186 57.8431 99.6299 59.1119C110.415 51.7811 115.137 53.3318 115.137 53.3318C118.239 61.0856 116.265 66.8657 115.701 68.2755C119.296 72.2229 121.481 77.2276 121.481 83.4306C121.481 105.071 108.3 109.864 95.753 111.274C97.7972 113.036 99.5594 116.419 99.5594 121.706C99.5594 129.248 99.4889 135.31 99.4889 137.214C99.4889 138.694 100.546 140.456 103.366 139.892C114.56 136.113 124.288 128.918 131.179 119.321C138.071 109.723 141.779 98.2065 141.782 86.3912C141.782 55.235 116.547 30 85.3912 30Z" fill="white"/>
</svg>
