<svg width="170" height="170" viewBox="0 0 170 170" fill="none" xmlns="http://www.w3.org/2000/svg">
<circle cx="85" cy="85" r="85" fill="#FF8484"/>
<path d="M50.4358 45.9458H137.838V104.527H50.4358V45.9458ZM94.1366 60.5911C98 60.5911 101.705 62.134 104.437 64.8806C107.169 67.6271 108.704 71.3522 108.704 75.2363C108.704 79.1205 107.169 82.8456 104.437 85.5921C101.705 88.3386 98 89.8816 94.1366 89.8816C90.2733 89.8816 86.5681 88.3386 83.8363 85.5921C81.1044 82.8456 79.5697 79.1205 79.5697 75.2363C79.5697 71.3522 81.1044 67.6271 83.8363 64.8806C86.5681 62.134 90.2733 60.5911 94.1366 60.5911ZM69.8584 55.7093C69.8584 58.2988 68.8352 60.7821 67.014 62.6132C65.1928 64.4442 62.7227 65.4728 60.1471 65.4728V84.9999C62.7227 84.9999 65.1928 86.0285 67.014 87.8595C68.8352 89.6905 69.8584 92.1739 69.8584 94.7634H118.415C118.415 92.1739 119.438 89.6905 121.259 87.8595C123.08 86.0285 125.551 84.9999 128.126 84.9999V65.4728C125.551 65.4728 123.08 64.4442 121.259 62.6132C119.438 60.7821 118.415 58.2988 118.415 55.7093H69.8584ZM31.0132 65.4728H40.7245V114.29H118.415V124.054H31.0132V65.4728Z" fill="white"/>
</svg>
