<svg width="78" height="58" viewBox="0 0 78 58" xmlns="http://www.w3.org/2000/svg">
<path d="M70.0833 4.83333C70.7243 4.83333 71.339 5.08795 71.7922 5.54116C72.2454 5.99437 72.5 6.60906 72.5 7.25V50.75C72.5 51.3909 72.2454 52.0056 71.7922 52.4588C71.339 52.9121 70.7243 53.1667 70.0833 53.1667H7.25C6.60906 53.1667 5.99437 52.9121 5.54116 52.4588C5.08795 52.0056 4.83333 51.3909 4.83333 50.75V7.25C4.83333 6.60906 5.08795 5.99437 5.54116 5.54116C5.99437 5.08795 6.60906 4.83333 7.25 4.83333H70.0833ZM7.25 0C5.32718 0 3.48311 0.763837 2.12348 2.12348C0.763837 3.48311 0 5.32718 0 7.25L0 50.75C0 52.6728 0.763837 54.5169 2.12348 55.8765C3.48311 57.2362 5.32718 58 7.25 58H70.0833C72.0061 58 73.8502 57.2362 75.2099 55.8765C76.5695 54.5169 77.3333 52.6728 77.3333 50.75V7.25C77.3333 5.32718 76.5695 3.48311 75.2099 2.12348C73.8502 0.763837 72.0061 0 70.0833 0H7.25Z" fill="#343434"/>
<path d="M33.8333 16.9163C33.8333 16.2753 34.0879 15.6606 34.5411 15.2074C34.9943 14.7542 35.609 14.4996 36.2499 14.4996H60.4166C61.0575 14.4996 61.6722 14.7542 62.1254 15.2074C62.5787 15.6606 62.8333 16.2753 62.8333 16.9163C62.8333 17.5572 62.5787 18.1719 62.1254 18.6251C61.6722 19.0783 61.0575 19.3329 60.4166 19.3329H36.2499C35.609 19.3329 34.9943 19.0783 34.5411 18.6251C34.0879 18.1719 33.8333 17.5572 33.8333 16.9163ZM26.6026 12.7886C26.8277 13.0131 27.0062 13.2798 27.128 13.5734C27.2499 13.867 27.3126 14.1817 27.3126 14.4996C27.3126 14.8175 27.2499 15.1322 27.128 15.4258C27.0062 15.7194 26.8277 15.9861 26.6026 16.2106L19.3526 23.4606C19.1281 23.6857 18.8614 23.8642 18.5678 23.986C18.2742 24.1079 17.9595 24.1706 17.6416 24.1706C17.3237 24.1706 17.009 24.1079 16.7154 23.986C16.4218 23.8642 16.1551 23.6857 15.9306 23.4606L13.5139 21.0439C13.2892 20.8192 13.111 20.5525 12.9894 20.2589C12.8678 19.9653 12.8052 19.6507 12.8052 19.3329C12.8052 18.6912 13.0601 18.0757 13.5139 17.6219C13.9677 17.1681 14.5832 16.9132 15.2249 16.9132C15.8667 16.9132 16.4821 17.1681 16.9359 17.6219L17.6416 18.3324L23.1806 12.7886C23.4051 12.5635 23.6718 12.385 23.9654 12.2632C24.259 12.1413 24.5737 12.0786 24.8916 12.0786C25.2095 12.0786 25.5242 12.1413 25.8178 12.2632C26.1114 12.385 26.3781 12.5635 26.6026 12.7886ZM33.8333 36.2496C33.8333 35.6087 34.0879 34.994 34.5411 34.5408C34.9943 34.0875 35.609 33.8329 36.2499 33.8329H60.4166C61.0575 33.8329 61.6722 34.0875 62.1254 34.5408C62.5787 34.994 62.8333 35.6087 62.8333 36.2496C62.8333 36.8905 62.5787 37.5052 62.1254 37.9584C61.6722 38.4117 61.0575 38.6663 60.4166 38.6663H36.2499C35.609 38.6663 34.9943 38.4117 34.5411 37.9584C34.0879 37.5052 33.8333 36.8905 33.8333 36.2496ZM26.6026 32.1219C26.8277 32.3464 27.0062 32.6131 27.128 32.9067C27.2499 33.2003 27.3126 33.5151 27.3126 33.8329C27.3126 34.1508 27.2499 34.4656 27.128 34.7592C27.0062 35.0528 26.8277 35.3194 26.6026 35.5439L19.3526 42.7939C19.1281 43.019 18.8614 43.1975 18.5678 43.3194C18.2742 43.4412 17.9595 43.5039 17.6416 43.5039C17.3237 43.5039 17.009 43.4412 16.7154 43.3194C16.4218 43.1975 16.1551 43.019 15.9306 42.7939L13.5139 40.3773C13.2892 40.1526 13.111 39.8858 12.9894 39.5923C12.8678 39.2987 12.8052 38.984 12.8052 38.6663C12.8052 38.3485 12.8678 38.0339 12.9894 37.7403C13.111 37.4467 13.2892 37.18 13.5139 36.9553C13.7386 36.7306 14.0054 36.5523 14.2989 36.4307C14.5925 36.3091 14.9072 36.2465 15.2249 36.2465C15.5427 36.2465 15.8573 36.3091 16.1509 36.4307C16.4445 36.5523 16.7112 36.7306 16.9359 36.9553L17.6416 37.6658L23.1806 32.1219C23.4051 31.8969 23.6718 31.7183 23.9654 31.5965C24.259 31.4747 24.5737 31.4119 24.8916 31.4119C25.2095 31.4119 25.5242 31.4747 25.8178 31.5965C26.1114 31.7183 26.3781 31.8969 26.6026 32.1219Z" fill="#343434"/>
</svg>
