<svg width="58" height="58" viewBox="0 0 58 58" fill="none" xmlns="http://www.w3.org/2000/svg">
<path d="M50.75 0H7.25C5.32718 0 3.48311 0.763837 2.12348 2.12348C0.763837 3.48311 0 5.32718 0 7.25V50.75C0 52.6728 0.763837 54.5169 2.12348 55.8765C3.48311 57.2362 5.32718 58 7.25 58H50.75C52.6728 58 54.5169 57.2362 55.8765 55.8765C57.2362 54.5169 58 52.6728 58 50.75V7.25C58 5.32718 57.2362 3.48311 55.8765 2.12348C54.5169 0.763837 52.6728 0 50.75 0ZM32.625 50.75H7.25V25.375H32.625V50.75ZM50.75 50.75H39.875V25.375H50.75V50.75ZM50.75 18.125H7.25V7.25H50.75V18.125Z" fill="#343434"/>
</svg>
