<svg width="58" height="58" viewBox="0 0 58 58" fill="none" xmlns="http://www.w3.org/2000/svg">
<path d="M42.1834 31.9C44.3578 31.9 46.2713 30.711 47.257 28.913L57.6361 10.092C57.8805 9.65243 58.0058 9.15667 57.9998 8.65376C57.9938 8.15085 57.8566 7.65824 57.6018 7.22466C57.3469 6.79108 56.9834 6.43157 56.547 6.18169C56.1107 5.93182 55.6166 5.80025 55.1138 5.8H12.2056L9.48039 0H0V5.8H5.7984L16.2355 27.811L12.3216 34.887C10.2052 38.773 12.9884 43.5 17.3952 43.5H52.1856V37.7H17.3952L20.5843 31.9H42.1834ZM14.9599 11.6H50.1852L42.1834 26.1H21.831L14.9599 11.6ZM17.3952 46.4C14.2061 46.4 11.6258 49.01 11.6258 52.2C11.6258 55.39 14.2061 58 17.3952 58C20.5843 58 23.1936 55.39 23.1936 52.2C23.1936 49.01 20.5843 46.4 17.3952 46.4ZM46.3872 46.4C43.1981 46.4 40.6178 49.01 40.6178 52.2C40.6178 55.39 43.1981 58 46.3872 58C49.5764 58 52.1856 55.39 52.1856 52.2C52.1856 49.01 49.5764 46.4 46.3872 46.4Z" fill="#fff"/>
</svg>
