<svg width="58" height="58" viewBox="0 0 58 58" fill="none" xmlns="http://www.w3.org/2000/svg">
<path d="M50 12H58V21H50V12Z" fill="#343434"/>
<path d="M37 0H46V8H37V0Z" fill="#343434"/>
<path d="M53.8571 28.9231V41.3846H4.14286V8.15385H29V4H4.14286C3.0441 4 1.99035 4.43764 1.21341 5.21663C0.436478 5.99563 0 7.05218 0 8.15385V41.3846C0 42.4863 0.436478 43.5428 1.21341 44.3218C1.99035 45.1008 3.0441 45.5385 4.14286 45.5385H20.7143V53.8462H12.4286V58H45.5714V53.8462H37.2857V45.5385H53.8571C54.9559 45.5385 56.0096 45.1008 56.7866 44.3218C57.5635 43.5428 58 42.4863 58 41.3846V28.9231H53.8571ZM33.1429 53.8462H24.8571V45.5385H33.1429V53.8462Z" fill="#343434"/>
</svg>
