<svg width="58" height="58" viewBox="0 0 58 58" fill="none" xmlns="http://www.w3.org/2000/svg">
<path d="M24.8566 8.87757C24.8566 6.52309 23.9213 4.26505 22.2565 2.60018C20.5916 0.935313 18.3336 0 15.9791 0C13.6246 0 11.3665 0.935313 9.70168 2.60018C8.03681 4.26505 7.1015 6.52309 7.1015 8.87757C7.1015 11.2321 8.03681 13.4901 9.70168 15.155C11.3665 16.8198 13.6246 17.7551 15.9791 17.7551C18.3336 17.7551 20.5916 16.8198 22.2565 15.155C23.9213 13.4901 24.8566 11.2321 24.8566 8.87757ZM10.3297 8.87757C10.3297 8.13569 10.4758 7.40107 10.7597 6.71565C11.0436 6.03024 11.4598 5.40746 11.9844 4.88287C12.509 4.35828 13.1317 3.94215 13.8172 3.65824C14.5026 3.37433 15.2372 3.22821 15.9791 3.22821C16.721 3.22821 17.4556 3.37433 18.141 3.65824C18.8264 3.94215 19.4492 4.35828 19.9738 4.88287C20.4984 5.40746 20.9145 6.03024 21.1984 6.71565C21.4823 7.40107 21.6284 8.13569 21.6284 8.87757C21.6284 10.3759 21.0332 11.8128 19.9738 12.8723C18.9143 13.9317 17.4774 14.5269 15.9791 14.5269C14.4808 14.5269 13.0438 13.9317 11.9844 12.8723C10.9249 11.8128 10.3297 10.3759 10.3297 8.87757Z" fill="#fff"/>
<path d="M4.8426 21.0103H18.347C17.8175 22.0094 17.4237 23.0924 17.1912 24.2334H4.8426C4.41448 24.2334 4.00391 24.4032 3.70119 24.7055C3.39847 25.0077 3.2284 25.4176 3.2284 25.845V27.4566C3.2284 31.5178 6.77641 35.882 13.2235 36.9006C12.184 37.6097 11.3188 38.5541 10.7021 39.6532C3.89022 37.8127 0 32.5718 0 27.4566V25.845C0 24.5628 0.510201 23.333 1.41836 22.4263C2.32653 21.5196 3.55826 21.0103 4.8426 21.0103Z" fill="#fff"/>
<path d="M22.1521 20.9845C23.7795 19.0147 26.2433 17.7554 29.001 17.7554C30.9347 17.752 32.8166 18.3814 34.3592 19.5474C35.9019 20.7135 37.0208 22.3522 37.5451 24.2135C38.0125 25.8749 37.9861 27.6363 37.4693 29.283C36.9525 30.9296 35.9675 32.3902 34.6346 33.4865C33.3017 34.5828 31.6785 35.2674 29.9631 35.4568C28.2477 35.6462 26.5142 35.3322 24.9743 34.553C23.7886 33.9496 22.7537 33.0874 21.946 32.0303C21.1383 30.9731 20.5784 29.748 20.3078 28.4454C20.0372 27.1428 20.0627 25.7961 20.3825 24.5047C20.7022 23.2133 21.3081 22.0102 22.1553 20.9845H22.1521ZM23.8958 24.2135C23.5777 24.8844 23.3949 25.6113 23.3578 26.3528C23.3207 27.0943 23.43 27.8358 23.6795 28.535C23.929 29.2343 24.3137 29.8775 24.8118 30.4281C25.3099 30.9786 25.9115 31.4257 26.5824 31.7437C27.2532 32.0618 27.9801 32.2446 28.7216 32.2817C29.4631 32.3188 30.2046 32.2095 30.9039 31.96C31.6031 31.7105 32.2464 31.3258 32.797 30.8277C33.3475 30.3296 33.7946 29.728 34.1126 29.0571C34.7549 27.7019 34.8325 26.147 34.3284 24.7345C33.8242 23.322 32.7796 22.1676 31.4244 21.5253C30.0691 20.883 28.5142 20.8054 27.1017 21.3095C25.6892 21.8137 24.5348 22.8583 23.8925 24.2135H23.8958Z" fill="#fff"/>
<path d="M47.2962 39.6532C46.6811 38.5534 45.8177 37.6121 44.7743 36.9038C51.2194 35.882 54.7712 31.5146 54.7712 27.4566V25.845C54.7712 25.4176 54.6011 25.0077 54.2983 24.7055C53.9956 24.4032 53.5849 24.2334 53.1567 24.2334H40.8059C40.5778 23.1096 40.1896 22.0242 39.6532 21.0103H53.1567C54.4413 21.0103 55.6732 21.5196 56.5816 22.4263C57.4899 23.333 58.0002 24.5628 58.0002 25.845V27.4566C58.0002 32.5718 54.1061 37.8095 47.2962 39.6532Z" fill="#fff"/>
<path d="M43.3404 39.9513C42.4967 39.214 41.3941 38.7652 40.186 38.7652H17.8145C17.1845 38.7635 16.5604 38.8867 15.978 39.1277C15.3956 39.3688 14.8665 39.7229 14.421 40.1698C13.9755 40.6167 13.6224 41.1475 13.3821 41.7316C13.1418 42.3158 13.019 42.9419 13.0206 43.5738V45.1767C13.0206 51.4953 18.9651 57.9999 29.0003 57.9999C39.0355 57.9999 44.9799 51.4953 44.9799 45.1767V43.5738C44.9799 42.1312 44.3471 40.8361 43.3404 39.9513ZM16.2166 43.5738C16.2166 43.1487 16.3849 42.741 16.6846 42.4404C16.9843 42.1398 17.3907 41.9709 17.8145 41.9709H40.186C40.6098 41.9709 41.0163 42.1398 41.3159 42.4404C41.6156 42.741 41.784 43.1487 41.784 43.5738V45.1767C41.784 49.7867 37.2074 54.7941 29.0003 54.7941C20.7931 54.7941 16.2166 49.7867 16.2166 45.1767V43.5738Z" fill="#fff"/>
<path d="M41.8724 0C44.1877 0 46.4081 0.935313 48.0452 2.60018C49.6823 4.26505 50.6021 6.52309 50.6021 8.87757C50.6021 11.2321 49.6823 13.4901 48.0452 15.155C46.4081 16.8198 44.1877 17.7551 41.8724 17.7551C39.5572 17.7551 37.3368 16.8198 35.6997 15.155C34.0625 13.4901 33.1428 11.2321 33.1428 8.87757C33.1428 6.52309 34.0625 4.26505 35.6997 2.60018C37.3368 0.935313 39.5572 0 41.8724 0ZM41.8724 3.22821C40.3991 3.22821 38.9861 3.82341 37.9443 4.88287C36.9025 5.94233 36.3172 7.37927 36.3172 8.87757C36.3172 10.3759 36.9025 11.8128 37.9443 12.8723C38.9861 13.9317 40.3991 14.5269 41.8724 14.5269C43.3458 14.5269 44.7588 13.9317 45.8006 12.8723C46.8424 11.8128 47.4276 10.3759 47.4276 8.87757C47.4276 7.37927 46.8424 5.94233 45.8006 4.88287C44.7588 3.82341 43.3458 3.22821 41.8724 3.22821Z" fill="#fff"/>
</svg>
