<svg width="143" height="143" viewBox="0 0 143 143" fill="none" xmlns="http://www.w3.org/2000/svg">
<path d="M123.275 0H143V19.7241H123.275V0Z" fill="#343434"/>
<path d="M123.275 29.5864H143V51.7761H123.275V29.5864Z" fill="#343434"/>
<path d="M91.2246 0H113.414V19.7241H91.2246V0Z" fill="#343434"/>
<path d="M91.2246 29.5864H113.414V51.7761H91.2246V29.5864Z" fill="#343434"/>
<path d="M132.786 71.3106V102.035H10.2143V20.1037H71.5V9.8623H10.2143C7.50529 9.8623 4.90724 10.9413 2.99169 12.8619C1.07614 14.7826 0 17.3875 0 20.1037V102.035C0 104.751 1.07614 107.356 2.99169 109.276C4.90724 111.197 7.50529 112.276 10.2143 112.276H51.0714V132.759H30.6429V143H112.357V132.759H91.9286V112.276H132.786C135.495 112.276 138.093 111.197 140.008 109.276C141.924 107.356 143 104.751 143 102.035V71.3106H132.786ZM81.7143 132.759H61.2857V112.276H81.7143V132.759Z" fill="#343434"/>
</svg>
