<svg width="170" height="170" viewBox="0 0 170 170" fill="none" xmlns="http://www.w3.org/2000/svg">
<circle cx="85" cy="85" r="85" fill="#FF8484"/>
<path d="M90.0194 82.0258C89.39 81.9301 88.7543 81.8821 88.1176 81.8824H44.4706C41.1632 81.8824 37.9912 83.1962 35.6526 85.5349C33.3139 87.8736 32 91.0455 32 94.3529V103.706C32 116.513 45.0193 125.529 66.2941 125.529C70.8584 125.529 75.0485 125.112 78.8021 124.332C77.9237 122.433 77.2224 120.456 76.7071 118.427C73.269 119.027 69.784 119.317 66.2941 119.294C48.0808 119.294 38.2353 112.479 38.2353 103.706V94.3529C38.2353 92.6992 38.8922 91.1133 40.0616 89.9439C41.2309 88.7746 42.8169 88.1176 44.4706 88.1176H83.4848C85.3866 85.8106 87.5814 83.7654 90.0194 82.0258ZM109.941 75.6471C114.075 75.6471 118.04 74.0047 120.964 71.0814C123.887 68.158 125.529 64.1931 125.529 60.0588C125.529 55.9246 123.887 51.9596 120.964 49.0363C118.04 46.1129 114.075 44.4706 109.941 44.4706C105.807 44.4706 101.842 46.1129 98.9186 49.0363C95.9953 51.9596 94.3529 55.9246 94.3529 60.0588C94.3529 64.1931 95.9953 68.158 98.9186 71.0814C101.842 74.0047 105.807 75.6471 109.941 75.6471ZM100.588 60.0588C100.588 57.5783 101.574 55.1993 103.328 53.4453C105.082 51.6913 107.461 50.7059 109.941 50.7059C112.422 50.7059 114.801 51.6913 116.555 53.4453C118.309 55.1993 119.294 57.5783 119.294 60.0588C119.294 62.5394 118.309 64.9183 116.555 66.6724C114.801 68.4264 112.422 69.4118 109.941 69.4118C107.461 69.4118 105.082 68.4264 103.328 66.6724C101.574 64.9183 100.588 62.5394 100.588 60.0588ZM88.1176 53.8235C88.1176 48.0356 85.8184 42.4847 81.7257 38.392C77.633 34.2993 72.0821 32 66.2941 32C60.5062 32 54.9553 34.2993 50.8626 38.392C46.7698 42.4847 44.4706 48.0356 44.4706 53.8235C44.4706 59.6115 46.7698 65.1624 50.8626 69.2551C54.9553 73.3478 60.5062 75.6471 66.2941 75.6471C72.0821 75.6471 77.633 73.3478 81.7257 69.2551C85.8184 65.1624 88.1176 59.6115 88.1176 53.8235ZM50.7059 53.8235C50.7059 49.6893 52.3482 45.7243 55.2716 42.801C58.1949 39.8776 62.1599 38.2353 66.2941 38.2353C70.4284 38.2353 74.3933 39.8776 77.3167 42.801C80.24 45.7243 81.8824 49.6893 81.8824 53.8235C81.8824 57.9578 80.24 61.9227 77.3167 64.8461C74.3933 67.7694 70.4284 69.4118 66.2941 69.4118C62.1599 69.4118 58.1949 67.7694 55.2716 64.8461C52.3482 61.9227 50.7059 57.9578 50.7059 53.8235ZM138 109.941C138 117.383 135.044 124.52 129.782 129.782C124.52 135.044 117.383 138 109.941 138C102.5 138 95.3626 135.044 90.1006 129.782C84.8385 124.52 81.8824 117.383 81.8824 109.941C81.8824 102.5 84.8385 95.3626 90.1006 90.1006C95.3626 84.8385 102.5 81.8824 109.941 81.8824C117.383 81.8824 124.52 84.8385 129.782 90.1006C135.044 95.3626 138 102.5 138 109.941ZM124.619 98.3809C124.329 98.0906 123.985 97.8603 123.607 97.7031C123.228 97.5459 122.822 97.465 122.412 97.465C122.002 97.465 121.596 97.5459 121.217 97.7031C120.838 97.8603 120.494 98.0906 120.204 98.3809L103.706 114.886L99.6779 110.852C99.0925 110.266 98.2985 109.937 97.4706 109.937C96.6427 109.937 95.8487 110.266 95.2633 110.852C94.6779 111.437 94.349 112.231 94.349 113.059C94.349 113.887 94.6779 114.681 95.2633 115.266L101.499 121.501C101.788 121.792 102.132 122.022 102.511 122.179C102.89 122.336 103.296 122.417 103.706 122.417C104.116 122.417 104.522 122.336 104.901 122.179C105.28 122.022 105.624 121.792 105.913 121.501L124.619 102.796C124.909 102.506 125.14 102.162 125.297 101.783C125.454 101.404 125.535 100.998 125.535 100.588C125.535 100.178 125.454 99.7721 125.297 99.3933C125.14 99.0146 124.909 98.6705 124.619 98.3809Z" fill="white"/>
</svg>
