<svg width="170" height="170" viewBox="0 0 170 170" fill="none" xmlns="http://www.w3.org/2000/svg">
<circle cx="85" cy="85" r="85" fill="#FF8484"/>
<path d="M54.3572 31.0132C53.3452 31.0132 52.3746 31.4152 51.6589 32.1309C50.9433 32.8465 50.5413 33.8171 50.5413 34.8292V88.2375C50.5413 92.2857 52.1494 96.1682 55.0119 99.0307C57.8745 101.893 61.7569 103.501 65.8051 103.501H69.6211V122.581C69.6211 124.585 70.0157 126.569 70.7824 128.42C71.5491 130.271 72.6729 131.952 74.0896 133.369C75.5063 134.786 77.1881 135.91 79.0391 136.676C80.89 137.443 82.8739 137.838 84.8774 137.838C86.8809 137.838 88.8647 137.443 90.7157 136.676C92.5667 135.91 94.2485 134.786 95.6652 133.369C97.0819 131.952 98.2056 130.271 98.9723 128.42C99.739 126.569 100.134 124.585 100.134 122.581V103.501H103.965C108.013 103.501 111.896 101.893 114.758 99.0307C117.621 96.1682 119.229 92.2857 119.229 88.2375V34.8292C119.229 33.8171 118.827 32.8465 118.111 32.1309C117.395 31.4152 116.425 31.0132 115.413 31.0132H54.3572ZM111.597 76.7896H58.1732V38.6451H81.069V50.1083C81.069 51.1204 81.4711 52.091 82.1867 52.8066C82.9023 53.5222 83.873 53.9243 84.885 53.9243C85.8971 53.9243 86.8677 53.5222 87.5833 52.8066C88.2989 52.091 88.701 51.1204 88.701 50.1083V38.6451H96.3329V57.6945C96.3329 58.7065 96.735 59.6771 97.4506 60.3928C98.1662 61.1084 99.1368 61.5104 100.149 61.5104C101.161 61.5104 102.132 61.1084 102.847 60.3928C103.563 59.6771 103.965 58.7065 103.965 57.6945V38.6451H111.597V76.7896ZM58.1732 88.2375V84.4215H111.597V88.2375C111.597 90.2616 110.793 92.2028 109.361 93.6341C107.93 95.0654 105.989 95.8695 103.965 95.8695H96.3177C95.3056 95.8695 94.335 96.2715 93.6194 96.9871C92.9037 97.7028 92.5017 98.6734 92.5017 99.6854V122.581C92.5017 124.603 91.6984 126.543 90.2686 127.972C88.8387 129.402 86.8995 130.206 84.8774 130.206C82.8553 130.206 80.916 129.402 79.4862 127.972C78.0563 126.543 77.2531 124.603 77.2531 122.581V99.6854C77.2531 98.6734 76.851 97.7028 76.1354 96.9871C75.4198 96.2715 74.4492 95.8695 73.4371 95.8695H65.8051C63.781 95.8695 61.8398 95.0654 60.4086 93.6341C58.9773 92.2028 58.1732 90.2616 58.1732 88.2375Z" fill="white"/>
</svg>
