<svg width="170" height="170" viewBox="0 0 170 170" fill="none" xmlns="http://www.w3.org/2000/svg">
<circle cx="85" cy="85" r="85" fill="#FF8484"/>
<path d="M120.74 41.855C119.849 40.3776 118.592 39.1548 117.091 38.3044C115.59 37.454 113.895 37.0047 112.17 37H57.83C54.34 37 51.055 38.86 49.26 41.855L35.715 64.425C35.2463 65.2021 34.999 66.0925 35 67C35.02 71.8261 36.7975 76.4796 40 80.09V122C40 127.515 44.485 132 50 132H120C125.515 132 130 127.515 130 122V80.09C133.203 76.4796 134.98 71.8261 135 67C135.001 66.0925 134.754 65.2021 134.285 64.425L120.74 41.855ZM124.92 68.255C124.611 70.6691 123.434 72.8882 121.609 74.4976C119.783 76.107 117.434 76.9966 115 77C109.485 77 105 72.515 105 67C105 66.66 104.875 66.36 104.805 66.04L104.905 66.02L101.1 47H112.17L124.92 68.255ZM79.095 47H90.9L94.965 67.325C94.79 72.685 90.4 77 85 77C79.6 77 75.21 72.685 75.035 67.325L79.095 47ZM57.83 47H68.9L65.1 66.02L65.2 66.04C65.125 66.36 65 66.66 65 67C65 72.515 60.515 77 55 77C52.5663 76.9966 50.217 76.107 48.3914 74.4976C46.5658 72.8882 45.3886 70.6691 45.08 68.255L57.83 47ZM75 122V107H95V122H75ZM105 122V107C105 101.485 100.515 97 95 97H75C69.485 97 65 101.485 65 107V122H50V86.29C51.605 86.705 53.26 87 55 87C57.8391 87.0015 60.6458 86.397 63.2325 85.2269C65.8193 84.0569 68.1265 82.3481 70 80.215C73.665 84.375 79.035 87 85 87C90.965 87 96.335 84.375 100 80.215C101.874 82.3481 104.181 84.0569 106.767 85.2269C109.354 86.397 112.161 87.0015 115 87C116.74 87 118.395 86.705 120 86.29V122H105Z" fill="white"/>
</svg>
