<svg width="170" height="170" viewBox="0 0 170 170" fill="none" xmlns="http://www.w3.org/2000/svg">
<circle cx="85" cy="85" r="85" fill="#FF8484"/>
<path d="M85.6788 29C55.4528 29 30.864 53.2216 30.1296 83.3728V84.7668H14L38.4392 111.246L62.1984 84.7668H44.0288V83.3728C44.7564 60.9124 63.1232 42.9468 85.6788 42.9468C108.704 42.9468 127.37 61.674 127.37 84.7668C127.37 107.86 108.704 126.587 85.6788 126.587C76.8012 126.592 68.1563 123.749 61.0152 118.474L51.4544 128.702C61.2125 136.371 73.2675 140.534 85.6788 140.52C116.381 140.52 141.262 115.564 141.262 84.7668C141.262 53.9696 116.381 29 85.6788 29ZM78.8788 50.7668V84.7668C78.8866 86.5686 79.6021 88.2953 80.8712 89.5744L102.631 111.334C104.556 110.09 106.371 108.689 107.983 107.064L92.4788 91.5668V50.7668H78.8788Z" fill="white"/>
</svg>
