<svg width="55" height="58" viewBox="0 0 55 58" fill="none" xmlns="http://www.w3.org/2000/svg">
<path fill-rule="evenodd" clip-rule="evenodd" d="M27.5599 0C20.3074 0 13.7004 2.40398 9.79072 4.36809C9.43749 4.54532 9.10834 4.71934 8.80167 4.88691C8.19476 5.21882 7.67775 5.52818 7.26672 5.80048L11.7142 12.3711L13.8079 13.2074C21.9901 17.3499 32.9627 17.3499 41.1465 13.2074L43.5228 11.9699L47.7278 5.80048C46.8568 5.23019 45.9511 4.7152 45.016 4.25852C41.1256 2.31536 34.6759 0 27.5615 0H27.5599ZM17.2166 7.43751C15.6417 7.14178 14.0862 6.75006 12.5588 6.26452C16.2211 4.63233 21.6786 2.90024 27.5599 2.90024C31.6333 2.90024 35.4851 3.73164 38.6706 4.7854C34.9376 5.31228 30.9541 6.20652 27.1585 7.307C24.1721 8.17385 20.6815 8.0804 17.2166 7.43751ZM42.842 15.5969L42.447 15.7966C33.446 20.3533 21.5068 20.3533 12.5058 15.7966L12.1317 15.6065C-1.39067 30.496 -11.7147 58 27.5599 58C66.8345 58 56.2584 29.9821 42.842 15.5969ZM25.8917 29.0024C25.04 29.0024 24.2232 29.3419 23.621 29.9463C23.0188 30.5506 22.6805 31.3703 22.6805 32.2249C22.6805 33.0796 23.0188 33.8992 23.621 34.5035C24.2232 35.1079 25.04 35.4474 25.8917 35.4474V29.0024ZM29.1029 25.7799V24.1687H25.8917V25.7799C24.1884 25.7799 22.5548 26.459 21.3504 27.6676C20.1459 28.8763 19.4693 30.5156 19.4693 32.2249C19.4693 33.9342 20.1459 35.5735 21.3504 36.7822C22.5548 37.9909 24.1884 38.6699 25.8917 38.6699V45.1149C24.4948 45.1149 23.3051 44.2206 22.8619 42.9671C22.7962 42.762 22.6901 42.5722 22.55 42.409C22.4099 42.2458 22.2386 42.1124 22.0462 42.0167C21.8538 41.9211 21.6443 41.8652 21.43 41.8522C21.2157 41.8392 21.001 41.8695 20.7986 41.9413C20.5962 42.0131 20.4101 42.1249 20.2515 42.27C20.0929 42.4152 19.9649 42.5908 19.8751 42.7865C19.7853 42.9822 19.7355 43.194 19.7287 43.4093C19.7218 43.6246 19.7581 43.8392 19.8354 44.0402C20.2782 45.2969 21.0985 46.385 22.1831 47.1545C23.2677 47.9241 24.5633 48.3373 25.8917 48.3374V49.9486H29.1029V48.3374C30.8062 48.3374 32.4398 47.6583 33.6442 46.4497C34.8486 45.241 35.5253 43.6017 35.5253 41.8924C35.5253 40.1831 34.8486 38.5438 33.6442 37.3351C32.4398 36.1264 30.8062 35.4474 29.1029 35.4474V29.0024C30.4998 29.0024 31.6895 29.8967 32.1326 31.1502C32.1984 31.3553 32.3045 31.5451 32.4446 31.7083C32.5847 31.8715 32.756 32.0049 32.9484 32.1006C33.1407 32.1962 33.3503 32.2521 33.5646 32.2651C33.7788 32.278 33.9936 32.2477 34.196 32.176C34.3984 32.1042 34.5844 31.9924 34.743 31.8472C34.9017 31.7021 35.0297 31.5264 35.1195 31.3308C35.2093 31.1351 35.2591 30.9233 35.2659 30.708C35.2727 30.4926 35.2364 30.2781 35.1592 30.0771C34.7163 28.8204 33.8961 27.7323 32.8115 26.9628C31.7269 26.1932 30.4312 25.7799 29.1029 25.7799ZM29.1029 38.6699V45.1149C29.9545 45.1149 30.7713 44.7754 31.3735 44.171C31.9758 43.5667 32.3141 42.747 32.3141 41.8924C32.3141 41.0377 31.9758 40.2181 31.3735 39.6137C30.7713 39.0094 29.9545 38.6699 29.1029 38.6699Z" fill="#343434"/>
</svg>
