<svg width="80" height="58" viewBox="0 0 80 58" fill="none" xmlns="http://www.w3.org/2000/svg">
<path d="M50.9091 0C58.6245 0 66.0239 3.05535 71.4795 8.4939C76.9351 13.9325 80 21.3087 80 29C80 36.6913 76.9351 44.0675 71.4795 49.5061C66.0239 54.9447 58.6245 58 50.9091 58C43.1937 58 35.7943 54.9447 30.3387 49.5061C24.8831 44.0675 21.8182 36.6913 21.8182 29C21.8182 21.3087 24.8831 13.9325 30.3387 8.4939C35.7943 3.05535 43.1937 0 50.9091 0ZM50.9091 7.25C45.1225 7.25 39.573 9.54151 35.4813 13.6204C31.3896 17.6993 29.0909 23.2315 29.0909 29C29.0909 34.7685 31.3896 40.3007 35.4813 44.3796C39.573 48.4585 45.1225 50.75 50.9091 50.75C56.6956 50.75 62.2452 48.4585 66.3369 44.3796C70.4286 40.3007 72.7273 34.7685 72.7273 29C72.7273 23.2315 70.4286 17.6993 66.3369 13.6204C62.2452 9.54151 56.6956 7.25 50.9091 7.25ZM47.2727 14.5H52.7273V28.2025L61.2 36.6488L57.3455 40.4913L47.2727 30.45V14.5ZM3.63636 50.75C2.67194 50.75 1.74702 50.3681 1.06507 49.6883C0.383116 49.0084 0 48.0864 0 47.125C0 46.1636 0.383116 45.2416 1.06507 44.5617C1.74702 43.8819 2.67194 43.5 3.63636 43.5H17.5636C18.6909 46.0738 20.1455 48.5025 21.8182 50.75H3.63636ZM7.27273 32.625C6.3083 32.625 5.38338 32.2431 4.70143 31.5633C4.01948 30.8834 3.63636 29.9614 3.63636 29C3.63636 28.0386 4.01948 27.1166 4.70143 26.4367C5.38338 25.7569 6.3083 25.375 7.27273 25.375H14.7273L14.5455 29L14.7273 32.625H7.27273ZM10.9091 14.5C9.94467 14.5 9.01974 14.1181 8.33779 13.4383C7.65584 12.7584 7.27273 11.8364 7.27273 10.875C7.27273 9.91359 7.65584 8.99156 8.33779 8.31174C9.01974 7.63192 9.94467 7.25 10.9091 7.25H21.8182C20.1455 9.4975 18.6909 11.9263 17.5636 14.5H10.9091Z" fill="#343434"/>
</svg>
