<svg width="78" height="58" viewBox="0 0 78 58" fill="none" xmlns="http://www.w3.org/2000/svg">
<path d="M33.8333 58C33.8333 58 29 58 29 53.1667C29 48.3333 33.8333 33.8333 53.1667 33.8333C72.5 33.8333 77.3333 48.3333 77.3333 53.1667C77.3333 58 72.5 58 72.5 58H33.8333ZM53.1667 29C57.0123 29 60.7004 27.4723 63.4197 24.753C66.139 22.0338 67.6667 18.3456 67.6667 14.5C67.6667 10.6544 66.139 6.96623 63.4197 4.24695C60.7004 1.52767 57.0123 0 53.1667 0C49.321 0 45.6329 1.52767 42.9136 4.24695C40.1943 6.96623 38.6667 10.6544 38.6667 14.5C38.6667 18.3456 40.1943 22.0338 42.9136 24.753C45.6329 27.4723 49.321 29 53.1667 29Z" fill="#343434"/>
<path fill-rule="evenodd" clip-rule="evenodd" d="M25.2107 57.9998C24.4942 56.4909 24.1368 54.8366 24.1667 53.1665C24.1667 46.6173 27.4533 39.8748 33.524 35.1865C30.4939 34.2528 27.3371 33.7963 24.1667 33.8331C4.83333 33.8331 0 48.3331 0 53.1665C0 57.9998 4.83333 57.9998 4.83333 57.9998H25.2107Z" fill="#343434"/>
<path d="M21.75 29.0002C24.9547 29.0002 28.0281 27.7271 30.2942 25.461C32.5603 23.195 33.8333 20.1215 33.8333 16.9168C33.8333 13.7121 32.5603 10.6387 30.2942 8.37262C28.0281 6.10656 24.9547 4.8335 21.75 4.8335C18.5453 4.8335 15.4719 6.10656 13.2058 8.37262C10.9397 10.6387 9.66666 13.7121 9.66666 16.9168C9.66666 20.1215 10.9397 23.195 13.2058 25.461C15.4719 27.7271 18.5453 29.0002 21.75 29.0002Z" fill="#343434"/>
</svg>
