<svg width="17" height="18" viewBox="0 0 17 18" fill="none" xmlns="http://www.w3.org/2000/svg">
<path d="M8.49771 5.01954C6.08425 5.01954 4.13648 6.96735 4.13648 9.38086C4.13648 11.7944 6.08425 13.7422 8.49771 13.7422C10.9112 13.7422 12.859 11.7944 12.859 9.38086C12.859 6.96735 10.9112 5.01954 8.49771 5.01954ZM8.49771 12.2154C6.93694 12.2154 5.66323 10.9417 5.66323 9.38086C5.66323 7.82005 6.93694 6.54632 8.49771 6.54632C10.0585 6.54632 11.3322 7.82005 11.3322 9.38086C11.3322 10.9417 10.0585 12.2154 8.49771 12.2154ZM13.0376 3.82448C12.4741 3.82448 12.019 4.27954 12.019 4.84304C12.019 5.40655 12.4741 5.86161 13.0376 5.86161C13.6011 5.86161 14.0561 5.40868 14.0561 4.84304C14.0563 4.70924 14.0301 4.57671 13.9789 4.45306C13.9278 4.3294 13.8528 4.21705 13.7582 4.12244C13.6636 4.02782 13.5512 3.9528 13.4276 3.90167C13.3039 3.85054 13.1714 3.82431 13.0376 3.82448ZM16.9991 9.38086C16.9991 8.20707 17.0097 7.04391 16.9438 5.87224C16.8778 4.51132 16.5674 3.3035 15.5722 2.30833C14.575 1.31103 13.3693 1.0027 12.0084 0.936779C10.8346 0.87086 9.67149 0.881492 8.49984 0.881492C7.32607 0.881492 6.16293 0.87086 4.99129 0.936779C3.63039 1.0027 2.4226 1.31316 1.42745 2.30833C0.430165 3.30563 0.121837 4.51132 0.0559188 5.87224C-0.00999953 7.04603 0.000632484 8.20919 0.000632484 9.38086C0.000632484 10.5525 -0.00999953 11.7178 0.0559188 12.8895C0.121837 14.2504 0.432291 15.4582 1.42745 16.4534C2.42473 17.4507 3.63039 17.759 4.99129 17.8249C6.16506 17.8909 7.3282 17.8802 8.49984 17.8802C9.67361 17.8802 10.8368 17.8909 12.0084 17.8249C13.3693 17.759 14.5771 17.4486 15.5722 16.4534C16.5695 15.4561 16.8778 14.2504 16.9438 12.8895C17.0118 11.7178 16.9991 10.5547 16.9991 9.38086ZM15.1278 14.395C14.9726 14.782 14.7855 15.0712 14.4857 15.3689C14.1858 15.6687 13.8988 15.8559 13.5118 16.0111C12.3933 16.4555 9.7374 16.3556 8.49771 16.3556C7.25803 16.3556 4.60003 16.4555 3.48154 16.0132C3.09454 15.858 2.80535 15.6709 2.50765 15.371C2.20783 15.0712 2.02071 14.7841 1.86548 14.3971C1.42319 13.2765 1.52313 10.6206 1.52313 9.38086C1.52313 8.14115 1.42319 5.4831 1.86548 4.3646C2.02071 3.97758 2.20783 3.68839 2.50765 3.39069C2.80748 3.09299 3.09454 2.90373 3.48154 2.7485C4.60003 2.3062 7.25803 2.40615 8.49771 2.40615C9.7374 2.40615 12.3954 2.3062 13.5139 2.7485C13.9009 2.90373 14.1901 3.09086 14.4878 3.39069C14.7876 3.69051 14.9747 3.97758 15.1299 4.3646C15.5722 5.4831 15.4723 8.14115 15.4723 9.38086C15.4723 10.6206 15.5722 13.2765 15.1278 14.395Z" fill="#A7A7A7"/>
</svg>
